<?xml version="1.0" encoding="UTF-8" standalone="no" ?>
<!DOCTYPE svg PUBLIC "-//W3C//DTD SVG 1.1//EN" "http://www.w3.org/Graphics/SVG/1.1/DTD/svg11.dtd">
<svg xmlns="http://www.w3.org/2000/svg" xmlns:xlink="http://www.w3.org/1999/xlink" version="1.1" width="1080" height="1080" viewBox="0 0 1080 1080" xml:space="preserve">
<desc>Created with Fabric.js 5.2.4</desc>
<defs>
</defs>
<g transform="matrix(1 0 0 1 540 540)" id="764f0557-4835-451c-8e2b-748f68ece744"  >
<rect style="stroke: none; stroke-width: 1; stroke-dasharray: none; stroke-linecap: butt; stroke-dashoffset: 0; stroke-linejoin: miter; stroke-miterlimit: 4; fill: rgb(255,255,255); fill-rule: nonzero; opacity: 1; visibility: hidden;" vector-effect="non-scaling-stroke"  x="-540" y="-540" rx="0" ry="0" width="1080" height="1080" />
</g>
<g transform="matrix(1 0 0 1 540 540)" id="8a8f345b-49d4-4ce0-b5a2-ecd4debad120"  >
</g>
<g transform="matrix(1 0 0 1 1384.93 540)"  >
<g style="" vector-effect="non-scaling-stroke"   >
		<g transform="matrix(7.66 0 0 7.66 309.74 -2.17)"  >
<path style="stroke: none; stroke-width: 1; stroke-dasharray: none; stroke-linecap: butt; stroke-dashoffset: 0; stroke-linejoin: miter; stroke-miterlimit: 4; fill: rgb(12,52,75); fill-rule: nonzero; opacity: 1;" vector-effect="non-scaling-stroke"  transform=" translate(-203.54, -63.72)" d="M 199.202 85.75 L 207.84 85.75 L 207.84 54.088 L 199.202 54.088 z M 198.835 45.903 C 198.835 43.089999999999996 200.40200000000002 41.684 203.536 41.684 C 206.669 41.684 208.237 43.089999999999996 208.237 45.903 C 208.237 47.244 207.845 48.287 207.06199999999998 49.033 C 206.278 49.779 205.10299999999998 50.151 203.53599999999997 50.151 C 200.402 50.151 198.83499999999998 48.73500000000001 198.83499999999998 45.903000000000006 z" stroke-linecap="round" />
</g>
		<g transform="matrix(7.66 0 0 7.66 -68.75 8.03)"  >
<path style="stroke: none; stroke-width: 1; stroke-dasharray: none; stroke-linecap: butt; stroke-dashoffset: 0; stroke-linejoin: miter; stroke-miterlimit: 4; fill: rgb(12,52,75); fill-rule: evenodd; opacity: 1;" vector-effect="non-scaling-stroke"  transform=" translate(-154.13, -65.05)" d="M 164.253 67.483 C 167.039 65.123 168.43099999999998 61.716 168.43099999999998 57.260000000000005 C 168.43099999999998 52.974000000000004 167.124 49.75000000000001 164.509 47.58800000000001 C 161.89399999999998 45.42800000000001 158.076 44.34600000000001 153.053 44.34600000000001 L 139.828 44.34600000000001 L 139.828 85.75000000000001 L 148.607 85.75000000000001 L 148.607 71.02300000000001 L 152.374 71.02300000000001 C 157.509 71.02300000000001 161.469 69.84400000000001 164.253 67.483 z M 151.49599999999998 63.830000000000005 L 148.60699999999997 63.830000000000005 L 148.60699999999997 51.540000000000006 L 152.59999999999997 51.540000000000006 C 154.99799999999996 51.540000000000006 156.75799999999995 52.03000000000001 157.88199999999998 53.01200000000001 C 159.00499999999997 53.99400000000001 159.56699999999998 55.51400000000001 159.56699999999998 57.57200000000001 C 159.56699999999998 59.61000000000001 158.897 61.16300000000001 157.55599999999998 62.23000000000001 C 156.21499999999997 63.29700000000001 154.19599999999997 63.83000000000001 151.49599999999998 63.83000000000001 z" stroke-linecap="round" />
</g>
		<g transform="matrix(7.66 0 0 7.66 536.37 45.24)"  >
<path style="stroke: none; stroke-width: 1; stroke-dasharray: none; stroke-linecap: butt; stroke-dashoffset: 0; stroke-linejoin: miter; stroke-miterlimit: 4; fill: rgb(12,52,75); fill-rule: nonzero; opacity: 1;" vector-effect="non-scaling-stroke"  transform=" translate(-233.12, -69.91)" d="M 194.62 53.748 C 193.846 53.577999999999996 192.874 53.492999999999995 191.703 53.492999999999995 C 189.739 53.492999999999995 187.922 54.035999999999994 186.252 55.120999999999995 C 184.58902368450336 56.19796584793013 183.22104136739713 57.672843265694645 182.27200000000002 59.412 L 181.848 59.41199999999999 L 180.573 54.087999999999994 L 174.031 54.087999999999994 L 174.031 85.75 L 182.669 85.75 L 182.669 69.636 C 182.669 67.08699999999999 183.43800000000002 65.104 184.976 63.687999999999995 C 186.516 62.272 188.663 61.56399999999999 191.42 61.56399999999999 C 192.421 61.56399999999999 193.26999999999998 61.65899999999999 193.969 61.846999999999994 z M 234.865 83.768 C 237.122 82.068 238.25 79.596 238.25 76.348 C 238.25 74.781 237.977 73.431 237.429 72.298 C 236.882 71.165 236.031 70.165 234.88 69.296 C 233.72899999999998 68.42800000000001 231.916 67.494 229.442 66.49300000000001 C 226.667 65.379 224.869 64.53800000000001 224.048 63.97200000000001 C 223.227 63.406000000000006 222.815 62.73600000000001 222.815 61.961000000000006 C 222.815 60.583000000000006 224.09 59.894000000000005 226.639 59.894000000000005 C 228.073 59.894000000000005 229.48000000000002 60.111000000000004 230.858 60.544000000000004 C 232.236 60.980000000000004 233.719 61.536 235.305 62.216 L 237.91 55.986000000000004 C 234.304 54.325 230.594 53.49400000000001 226.78 53.49400000000001 C 222.777 53.49400000000001 219.687 54.263000000000005 217.507 55.80200000000001 C 215.324 57.34100000000001 214.234 59.516000000000005 214.234 62.32900000000001 C 214.234 63.97200000000001 214.494 65.355 215.014 66.47800000000001 C 215.532 67.602 216.363 68.59800000000001 217.507 69.46600000000001 C 218.647 70.33500000000001 220.43800000000002 71.27900000000001 222.872 72.298 C 224.57100000000003 73.016 225.931 73.643 226.95100000000002 74.181 C 227.97000000000003 74.72 228.68800000000002 75.201 229.104 75.62599999999999 C 229.519 76.05099999999999 229.72600000000003 76.603 229.72600000000003 77.28299999999999 C 229.72600000000003 79.09499999999998 228.15900000000002 80.00099999999999 225.02400000000003 80.00099999999999 C 223.49500000000003 80.00099999999999 221.72500000000002 79.746 219.71500000000003 79.237 C 217.70300000000003 78.72699999999999 215.89600000000004 78.095 214.29100000000003 77.339 L 214.29100000000003 84.476 C 215.75756952304295 85.09530055487065 217.2863038385927 85.55559709330262 218.85100000000003 85.849 C 220.47500000000002 86.161 222.43800000000002 86.31700000000001 224.74200000000002 86.31700000000001 C 229.234 86.31700000000001 232.609 85.46700000000001 234.865 83.76700000000001 z M 272.469 85.75 L 263.831 85.75 L 263.831 67.257 C 263.831 64.973 263.44800000000004 63.25900000000001 262.685 62.117000000000004 C 261.919 60.975 260.716 60.403000000000006 259.073 60.403000000000006 C 256.86499999999995 60.403000000000006 255.26 61.215 254.259 62.839000000000006 C 253.25799999999998 64.46300000000001 252.75799999999998 67.134 252.75799999999998 70.85400000000001 L 252.75799999999998 85.75000000000001 L 244.11999999999998 85.75000000000001 L 244.11999999999998 54.088000000000015 L 250.71899999999997 54.088000000000015 L 251.87999999999997 58.13800000000001 L 252.36199999999997 58.13800000000001 C 253.21099999999996 56.68400000000001 254.43899999999996 55.546000000000014 256.04299999999995 54.725000000000016 C 257.64799999999997 53.90400000000002 259.489 53.493000000000016 261.566 53.493000000000016 C 266.30499999999995 53.493000000000016 269.51399999999995 55.042000000000016 271.195 58.13800000000002 L 271.959 58.13800000000002 C 272.809 56.66500000000002 274.06 55.52300000000002 275.712 54.71100000000002 C 277.364 53.89900000000002 279.228 53.49300000000002 281.305 53.49300000000002 C 284.892 53.49300000000002 287.607 54.41400000000002 289.447 56.254000000000026 C 291.288 58.09500000000003 292.208 61.04500000000003 292.208 65.10400000000003 L 292.208 85.75000000000003 L 283.54200000000003 85.75000000000003 L 283.54200000000003 67.25700000000003 C 283.54200000000003 64.97300000000003 283.15900000000005 63.259000000000036 282.396 62.11700000000003 C 281.63 60.97500000000003 280.427 60.403000000000034 278.784 60.403000000000034 C 276.67 60.403000000000034 275.089 61.159000000000034 274.03999999999996 62.66900000000003 C 272.99299999999994 64.18000000000004 272.46899999999994 66.57700000000003 272.46899999999994 69.86200000000004 z" stroke-linecap="round" />
</g>
		<g transform="matrix(7.66 0 0 7.66 0 0)"  >
<path style="stroke: none; stroke-width: 1; stroke-dasharray: none; stroke-linecap: butt; stroke-dashoffset: 0; stroke-linejoin: miter; stroke-miterlimit: 4; fill: rgb(12,52,75); fill-rule: evenodd; opacity: 1;" vector-effect="non-scaling-stroke"  transform=" translate(-163.1, -64)" d="M 318.222 81.445 L 319.893 85.75 L 325.92499999999995 85.75 L 325.92499999999995 64.651 C 325.92499999999995 60.875 324.792 58.062 322.52699999999993 56.211999999999996 C 320.2609999999999 54.361999999999995 317.0039999999999 53.43599999999999 312.7559999999999 53.43599999999999 C 308.31999999999994 53.43599999999999 304.27899999999994 54.38999999999999 300.63499999999993 56.29699999999999 L 303.49499999999995 62.130999999999986 C 306.9119999999999 60.600999999999985 309.88599999999997 59.83699999999999 312.41599999999994 59.83699999999999 C 315.70099999999996 59.83699999999999 317.34399999999994 61.441999999999986 317.34399999999994 64.65099999999998 L 317.34399999999994 66.03899999999999 L 311.8499999999999 66.20899999999999 C 307.11099999999993 66.37899999999999 303.5669999999999 67.26199999999999 301.2149999999999 68.85699999999999 C 298.8649999999999 70.45299999999999 297.68999999999994 72.93099999999998 297.68999999999994 76.29099999999998 C 297.68999999999994 79.50099999999998 298.56299999999993 81.97399999999999 300.30899999999997 83.71099999999998 C 302.056 85.44799999999998 304.448 86.31599999999999 307.489 86.31599999999999 C 309.962 86.31599999999999 311.96799999999996 85.96199999999999 313.506 85.25399999999999 C 315.04499999999996 84.54599999999999 316.541 83.27699999999999 317.99499999999995 81.445 z M 314.00199999999995 71.193 L 317.34399999999994 71.08 L 317.34399999999994 73.685 C 317.34399999999994 75.593 316.7439999999999 77.122 315.54499999999996 78.273 C 314.347 79.425 312.746 80.00099999999999 310.74499999999995 80.00099999999999 C 307.95099999999996 80.00099999999999 306.554 78.78299999999999 306.554 76.34799999999998 C 306.554 74.64799999999998 307.167 73.38399999999999 308.395 72.55299999999998 C 309.62199999999996 71.72299999999998 311.491 71.26899999999998 314.002 71.19299999999998 z M 95.73299999999995 101.529 L 38.25399999999995 118.529 C 36.49799999999995 119.04899999999999 34.81499999999995 117.53 35.18399999999995 115.759 L 55.71799999999995 17.418999999999997 C 56.10199999999995 15.580999999999996 58.64399999999995 15.288999999999998 59.44599999999995 16.991999999999997 L 97.46599999999995 97.72800000000001 C 98.18299999999995 99.251 97.36499999999995 101.04700000000001 95.73299999999995 101.52900000000001 z M 105.58999999999995 97.51899999999999 L 61.56799999999995 4.036999999999992 L 61.56799999999995 4.034999999999992 C 60.4536304022189 1.689757680177295 58.14216509544791 0.14519654646190627 55.54899999999996 0.012999999999991907 C 52.86999999999995 -0.1430000000000081 50.46999999999995 1.1489999999999918 49.11599999999995 3.347999999999992 L 1.3719999999999501 80.678 C -0.10874598043872297 83.06273788530629 -0.07600162866778093 86.0888617281376 1.455999999999949 88.441 L 24.79399999999995 124.593 C 26.184999999999953 126.751 28.59499999999995 128 31.09999999999995 128 C 31.809999999999953 128 32.52399999999995 127.9 33.22599999999995 127.692 L 100.96999999999994 107.65599999999999 C 103.03332196280918 107.05146851799917 104.73322432606163 105.58211085293888 105.62999999999994 103.62799999999999 C 106.51554049297698 101.68448844553578 106.50091045947494 99.44975082809789 105.58999999999993 97.51799999999999 z" stroke-linecap="round" />
</g>
</g>
</g>
</svg>